<?xml version="1.0" encoding="UTF-8"?>
<svg width="695px" height="363px" viewBox="0 0 695 363" version="1.1" xmlns="http://www.w3.org/2000/svg" xmlns:xlink="http://www.w3.org/1999/xlink">
    <!-- Generator: Sketch 50 (54983) - http://www.bohemiancoding.com/sketch -->
    <title>superhi-logo</title>
    <desc>Created with Sketch.</desc>
    <defs></defs>
    <g id="superhi-logo" stroke="none" stroke-width="1" fill="none" fill-rule="evenodd">
        <path d="M0.0001,197.4335 L17.4591,197.4335 C18.1591,202.8155 20.2161,206.6555 23.6291,208.9525 C27.0421,211.2495 31.4401,212.3985 36.8221,212.3985 C41.9411,212.3985 46.2511,211.3375 49.7521,209.2155 C53.2531,207.0935 55.0031,204.0195 55.0031,199.9945 C55.0031,196.7565 53.9961,194.1745 51.9841,192.2485 C49.9711,190.3235 46.8861,188.8355 42.7291,187.7855 L24.8761,183.0585 C17.3501,181.0895 11.7711,177.8635 8.1391,173.3775 C4.5061,168.8925 2.6911,163.3025 2.6911,156.6075 C2.6911,152.9315 3.4791,149.5405 5.0541,146.4335 C6.6291,143.3275 8.8501,140.6575 11.7161,138.4265 C14.5821,136.1945 18.0711,134.4545 22.1851,133.2075 C26.2981,131.9605 30.9151,131.3375 36.0341,131.3375 C40.6721,131.3375 44.9941,131.8735 48.9981,132.9455 C53.0011,134.0175 56.4801,135.6695 59.4341,137.9005 C62.3871,140.1325 64.8051,142.9985 66.6871,146.4995 C68.5671,150.0005 69.7281,154.1135 70.1661,158.8385 L52.7061,158.8385 C52.4431,156.3445 51.7971,154.2445 50.7701,152.5375 C49.7411,150.8315 48.4611,149.4645 46.9301,148.4355 C45.3981,147.4085 43.6701,146.6965 41.7451,146.3025 C39.8191,145.9085 37.8281,145.7115 35.7721,145.7115 C30.9151,145.7115 27.0971,146.6725 24.3181,148.5945 C21.5391,150.5165 20.1501,153.1385 20.1501,156.4565 C20.1501,159.9505 21.2331,162.6035 23.4011,164.4155 C25.5691,166.2295 28.8431,167.7245 33.2231,168.9035 L48.7841,172.9555 C56.5671,175.0175 62.4591,178.1325 66.4611,182.2975 C70.4611,186.4635 72.4621,192.3185 72.4621,199.8615 C72.4621,204.0625 71.6091,207.8265 69.9031,211.1515 C68.1961,214.4765 65.7781,217.2995 62.6501,219.6185 C59.5211,221.9385 55.7801,223.7105 51.4261,224.9345 C47.0721,226.1595 42.2921,226.7725 37.0841,226.7725 C31.9651,226.7725 27.2391,226.2365 22.9071,225.1645 C18.5751,224.0925 14.7681,222.3865 11.4861,220.0445 C8.2051,217.7045 5.5571,214.6745 3.5441,210.9545 C1.5311,207.2355 0.3501,202.7285 0.0001,197.4335" id="Fill-1" fill="#FFFFFF"></path>
        <path d="M110.962,192.1825 L110.962,133.3065 L128.421,133.3065 L128.421,192.9045 C128.421,198.8115 129.941,203.4615 132.983,206.8515 C136.024,210.2435 140.586,211.9385 146.669,211.9385 C152.838,211.9385 157.454,210.2655 160.518,206.9175 C163.58,203.5705 165.112,198.8995 165.112,192.9045 L165.112,133.3065 L182.309,133.3065 L182.309,192.1825 C182.309,197.4775 181.481,202.2575 179.824,206.5235 C178.167,210.7905 175.801,214.4225 172.728,217.4195 C169.654,220.4175 165.926,222.7255 161.545,224.3445 C157.164,225.9625 152.204,226.7725 146.669,226.7725 C141.111,226.7725 136.144,225.9625 131.769,224.3445 C127.393,222.7255 123.651,220.4385 120.545,217.4855 C117.438,214.5315 115.065,210.9215 113.423,206.6555 C111.782,202.3895 110.962,197.5645 110.962,192.1825" id="Fill-3" fill="#FFFFFF"></path>
        <path d="M245.2945,177.1518 L266.9545,177.1518 C270.0165,177.1518 272.2155,176.3868 273.5505,174.8548 C274.8855,173.3228 275.5525,171.0478 275.5525,168.0278 L275.5525,156.7388 C275.5525,153.6758 274.9295,151.4778 273.6825,150.1418 C272.4355,148.8078 270.1915,148.1398 266.9545,148.1398 L245.2945,148.1398 L245.2945,177.1518 Z M227.8355,224.7378 L227.8355,133.3068 L265.0505,133.3068 C274.8085,133.3068 282.0285,135.6588 286.7115,140.3618 C291.3925,145.0668 293.7335,152.4948 293.7335,162.6458 C293.7335,172.3168 291.1295,179.6128 285.9235,184.5358 C280.7155,189.4588 273.8025,191.9198 265.1825,191.9198 L245.2945,191.9198 L245.2945,224.7378 L227.8355,224.7378 Z" id="Fill-5" fill="#FFFFFF"></path>
        <polygon id="Fill-7" fill="#FFFFFF" points="333.7462 224.7382 333.7462 133.3062 396.6262 133.3062 396.6262 148.1402 351.2052 148.1402 351.2052 170.5882 390.4562 170.5882 390.4562 185.3562 351.2052 185.3562 351.2052 209.9692 396.6262 209.9692 396.6262 224.7382"></polygon>
        <path d="M457.6441,175.248 L479.6981,175.248 C485.1671,175.248 487.9021,172.207 487.9021,166.125 L487.9021,156.739 C487.9021,153.676 487.3001,151.477 486.0981,150.142 C484.8941,148.808 482.7601,148.14 479.6981,148.14 L457.6441,148.14 L457.6441,175.248 Z M440.1851,224.738 L440.1851,133.307 L477.4001,133.307 C487.1581,133.307 494.3781,135.615 499.0611,140.231 C503.7421,144.848 506.0841,151.947 506.0841,161.53 C506.0841,168.794 504.3551,174.624 500.8981,179.022 C497.4411,183.42 492.6281,186.472 486.4581,188.179 L507.3961,224.738 L488.0341,224.738 L468.8021,189.623 L457.6441,189.623 L457.6441,224.738 L440.1851,224.738 Z" id="Fill-9" fill="#FFFFFF"></path>
        <polygon id="Fill-11" fill="#FFFFFF" points="560.0611 230.996 541.6111 141.446 558.7111 137.922 566.2871 174.694 601.9661 167.343 594.3901 130.571 611.4901 127.048 629.9401 216.599 612.8401 220.122 604.9461 181.808 569.2671 189.159 577.1611 227.473"></polygon>
        <path d="M694.461,11.9916 C693.941,18.0716 688.59,22.5776 682.511,22.0576 C676.431,21.5376 671.924,16.1876 672.445,10.1076 C672.965,4.0276 678.315,-0.4794 684.395,0.0416 C690.475,0.5616 694.982,5.9116 694.461,11.9916" id="Fill-13" fill="#FFFFFF"></path>
        <polygon id="Fill-15" fill="#FFFFFF" points="656.8516 200.2084 661.0316 151.3654 678.4276 152.8544 674.2476 201.6974"></polygon>
        <polygon id="Fill-17" fill="#FFFFFF" points="549.6968 349.8417 677.1098 362.8497 678.5828 348.4247 551.1698 335.4167"></polygon>
    </g>
</svg>