<svg width="1500" height="600" viewBox="0 0 1500 600" fill="none" xmlns="http://www.w3.org/2000/svg">
<path d="M283.5 483C400 483 505.5 450.5 505.5 372C505.5 256.5 178.5 253.5 178.5 182.5C178.5 146.5 239.5 134.5 287 134.5C351 134.5 419.5 173.5 457.5 244.5H470L443 148C393 128.5 335.5 118 273 118C158.5 118 63 149 63 218C63 346 389.5 353.5 389.5 416.5C389.5 452.5 333.5 465 268.5 465C186.5 465 98.5 416 52.5 314H40L61.5 428.5C102.5 464.5 194.5 483 283.5 483Z" fill="black"/>
<path d="M1153.73 135.5V125.5H876.23V135.5C919.23 139 956.23 139 956.23 187.5V225.5H740.23V187.5C740.23 138.5 781.73 139 820.23 135.5V125.5H542.73V135.5C585.23 139 622.73 139 622.73 187.5V413.5C622.73 462 585.23 461.5 542.73 465V475.5H820.23V465C781.73 461.5 740.23 462.5 740.23 413.5V241.5H956.23V413.5C956.23 462 919.23 461.5 876.23 465V475.5H1153.73V465C1115.73 461.5 1073.73 462.5 1073.73 413.5V187.5C1073.73 138.5 1115.73 139 1153.73 135.5Z" fill="black"/>
<path d="M1186.77 475.5H1459.27V465C1420.77 461.5 1381.77 462.5 1381.77 413.5V187.5C1381.77 138.5 1420.77 139 1459.27 135.5V125.5H1186.77V135.5C1229.27 139 1264.27 139 1264.27 187.5V413.5C1264.27 462 1229.27 461.5 1186.77 465V475.5Z" fill="black"/>
</svg>
