<svg width="1500" height="600" viewBox="0 0 1500 600" fill="none" xmlns="http://www.w3.org/2000/svg">
<path d="M956.23 226H956.73V225.5V187.5C956.73 175.313 954.406 166.123 950.206 159.148C946.002 152.168 939.945 147.451 932.559 144.168C925.181 140.889 916.47 139.038 906.936 137.786C899.53 136.813 891.601 136.198 883.396 135.563C881.193 135.392 878.969 135.22 876.73 135.039V126H1153.23V135.044C1150.52 135.291 1147.78 135.52 1145.04 135.749C1138.34 136.308 1131.62 136.869 1125.13 137.715C1115.84 138.928 1106.97 140.732 1099.29 143.977C1091.59 147.224 1085.07 151.92 1080.47 158.921C1075.87 165.92 1073.23 175.178 1073.23 187.5V413.5C1073.23 425.822 1075.87 435.049 1080.47 442.002C1085.07 448.957 1091.6 453.59 1099.29 456.774C1106.98 459.956 1115.84 461.697 1125.14 462.863C1131.35 463.643 1137.79 464.168 1144.2 464.691C1147.22 464.938 1150.24 465.184 1153.23 465.456V475H876.73V465.461C879.321 465.252 881.891 465.056 884.433 464.863C892.268 464.266 899.841 463.69 906.934 462.793C916.467 461.588 925.178 459.799 932.555 456.583C939.942 453.364 946 448.709 950.205 441.775C954.406 434.846 956.73 425.686 956.73 413.5V241.5V241H956.23H740.23H739.73V241.5V413.5C739.73 425.82 742.34 435.048 746.898 442.001C751.458 448.956 757.939 453.59 765.601 456.774C773.256 459.956 782.105 461.697 791.426 462.863C797.703 463.649 804.219 464.175 810.74 464.703C813.743 464.946 816.748 465.189 819.73 465.457V475H543.23V465.461C545.838 465.247 548.428 465.048 550.993 464.851C558.707 464.259 566.192 463.684 573.223 462.793C582.732 461.588 591.459 459.799 598.867 456.584C606.284 453.364 612.389 448.71 616.633 441.777C620.875 434.848 623.23 425.688 623.23 413.5V187.5C623.23 175.312 620.875 166.121 616.634 159.147C612.391 152.167 606.287 147.45 598.87 144.168C591.462 140.889 582.736 139.038 573.225 137.786C565.883 136.819 558.048 136.206 549.974 135.575C547.743 135.4 545.493 135.225 543.23 135.039V126H819.73V135.043C817.029 135.287 814.31 135.511 811.59 135.736C804.785 136.299 797.976 136.862 791.424 137.715C782.102 138.928 773.253 140.732 765.598 143.977C757.936 147.225 751.456 151.921 746.897 158.922C742.34 165.922 739.73 175.179 739.73 187.5V225.5V226H740.23H956.23ZM505 372C505 410.968 478.833 438.582 437.987 456.48C397.138 474.378 341.715 482.5 283.5 482.5C239.032 482.5 193.82 477.878 154.613 468.763C115.475 459.664 82.3779 446.101 61.9595 428.238L40.6026 314.5H52.1772C98.2918 416.473 186.376 465.5 268.5 465.5C301.02 465.5 331.335 462.375 353.538 454.723C375.719 447.078 390 434.834 390 416.5C390 408.385 384.739 401.247 375.765 394.728C366.781 388.204 353.977 382.224 338.661 376.439C318.773 368.926 294.57 361.713 268.875 354.056C255.003 349.922 240.697 345.658 226.4 341.148C185.591 328.274 144.835 313.384 114.286 293.736C83.7367 274.087 63.5 249.75 63.5 218C63.5 183.789 87.1576 158.923 125.26 142.585C163.36 126.247 215.784 118.5 273 118.5C335.348 118.5 392.704 128.958 442.586 148.375L469.341 244H457.799C419.69 173.017 351.119 134 287 134C263.219 134 236.032 137.003 214.771 144.529C193.55 152.04 178 164.154 178 182.5C178 191.591 183.24 199.532 192.24 206.682C201.239 213.83 214.068 220.245 229.411 226.286C252.669 235.443 281.808 243.78 312.339 252.515C322.086 255.304 331.974 258.133 341.859 261.042C382.736 273.074 423.558 286.482 454.157 304.082C484.768 321.688 505 343.402 505 372ZM1458.77 465.457V475H1187.27V465.461C1189.75 465.258 1192.2 465.069 1194.62 464.881C1202.42 464.278 1209.9 463.699 1216.88 462.793C1226.15 461.587 1234.57 459.798 1241.67 456.58C1248.78 453.358 1254.57 448.7 1258.57 441.766C1262.58 434.839 1264.77 425.682 1264.77 413.5V187.5C1264.77 175.318 1262.58 166.13 1258.57 159.157C1254.57 152.177 1248.78 147.457 1241.67 144.171C1234.57 140.89 1226.16 139.038 1216.88 137.786C1209.6 136.802 1201.76 136.185 1193.58 135.543C1191.5 135.379 1189.4 135.213 1187.27 135.039V126H1458.77V135.043C1456.19 135.276 1453.61 135.491 1451.03 135.706C1444.16 136.279 1437.36 136.847 1430.86 137.715C1421.77 138.929 1413.23 140.733 1405.88 143.98C1398.53 147.231 1392.36 151.931 1388.04 158.933C1383.72 165.931 1381.27 175.185 1381.27 187.5V413.5C1381.27 425.815 1383.72 435.039 1388.04 441.99C1392.37 448.946 1398.53 453.584 1405.89 456.771C1413.23 459.955 1421.77 461.697 1430.86 462.863C1437.09 463.662 1443.6 464.194 1450.17 464.731C1453.03 464.964 1455.91 465.199 1458.77 465.457Z" stroke="black"/>
</svg>
